<?xml version="1.0" standalone="no"?>
<!DOCTYPE svg PUBLIC "-//W3C//DTD SVG 20010904//EN"
 "http://www.w3.org/TR/2001/REC-SVG-20010904/DTD/svg10.dtd">
<svg version="1.0" xmlns="http://www.w3.org/2000/svg"
 width="116.000000pt" height="138.000000pt" viewBox="0 0 116.000000 138.000000"
 preserveAspectRatio="xMidYMid meet">

<g transform="translate(0.000000,138.000000) scale(0.100000,-0.100000)"
fill="#FFFFFF" stroke="none">
<path d="M110 1205 l0 -45 123 0 122 0 153 -305 152 -305 0 -155 0 -155 -45 0
-45 0 0 146 0 147 -137 268 -136 269 -49 0 c-26 0 -48 -2 -48 -5 0 -3 63 -131
140 -285 l140 -280 0 -130 0 -130 -50 0 -50 0 0 -45 0 -45 235 0 235 0 0 45 0
45 -50 0 -50 0 0 173 -1 172 -167 330 -167 330 -152 3 -153 3 0 -46z"/>
<path d="M750 1205 c0 -43 1 -45 30 -45 17 0 30 -2 30 -5 0 -3 -34 -73 -75
-155 -41 -82 -75 -155 -75 -160 0 -7 19 -10 48 -8 l47 3 83 163 82 162 55 0
55 0 0 45 0 45 -140 0 -140 0 0 -45z"/>
</g>
</svg>
